<svg xmlns="http://www.w3.org/2000/svg" xmlns:xlink="http://www.w3.org/1999/xlink" version="1.1" width="976.713pt" height="562.931pt" viewBox="0 0 976.713 562.931">
<defs>
<clipPath id="clip_0">
<path transform="matrix(1,0,0,-1,0,562.931)" d="M0 562.931H976.713V0H0Z"/>
</clipPath>
</defs>
<g id="layer_1" data-name="">
<g clip-path="url(#clip_0)">
<path transform="matrix(1,0,0,-1,870.0546,505.55323)" d="M0 0C0-10.003-186.615-18.112-416.817-18.112-647.02-18.112-833.635-10.003-833.635 0-833.635 10.003-647.02 18.113-416.817 18.113-186.615 18.113 0 10.003 0 0" fill="#d7d7d7"/>
<path transform="matrix(1,0,0,-1,769.0663,366.88334)" d="M0 0C.664-7.496 11.44 120.971 49.62 164.317 50.658 160.421 44.504 50.571 0 0" fill="#cfd8de"/>
<path transform="matrix(1,0,0,-1,750.4384,421.2011)" d="M0 0C21.628 31.132 30.493 86.591 30.346 88.699L26.172 88.409 28.259 88.554 26.17 88.589C25.932 84.56 16.939 31.717-3.434 2.385Z" fill="#cfd8de"/>
<path transform="matrix(1,0,0,-1,831.6024,344.83155)" d="M0 0C-.106-.577 .062-1.19 .45-1.638L1.543-.282ZM-99.585-72.878C-63.808-22.643-1.49 3.49 2.775 1.704L2.777 1.703 4.112-.756 1.626-.299 1.7-2.277C-3.546-2.472-62.365-27.829-96.177-75.306Z" fill="#cfd8de"/>
<path transform="matrix(1,0,0,-1,739.7509,421.66944)" d="M0 0C26.55 33.5 53.354 68.188 79.659 103.099L76.32 105.617C50.031 70.732 23.25 36.071-3.28 2.596Z" fill="#cfd8de"/>
<path transform="matrix(1,0,0,-1,808.1591,328.97654)" d="M0 0C-1.375-4.841 102.373 150.708 167.074 115.58 165.72 109.158 99.861 41.401 0 0" fill="#cfd8de"/>
<path transform="matrix(1,0,0,-1,791.8895,347.85255)" d="M0 0C-.027 .067 14.415 36.535 36.836 86.048 59.305 133.673 89.75 194.342 122.852 199.201 123.097 191.217 81.519 56.952 0 0" fill="#cfd8de"/>
<path transform="matrix(1,0,0,-1,787.9286,370.19673)" d="M0 0C-1.409 3.055 136.919 110.172 188.784 40.297 188.229 35.877 115.945 36.393 0 0" fill="#cfd8de"/>
<path transform="matrix(1,0,0,-1,207.3553,313.17524)" d="M0 0C-1.043 1.212-2.058 2.453-3.074 3.722-4.201 5.131-5.301 6.57-6.373 8.064-24.306 32.961-35.076 67.756-41.364 98.179-41.42 98.433-41.477 98.715-41.533 98.969-48.554 133.424-49.852 162.072-49.343 164.018-46.608 160.888-43.986 157.335-41.533 153.416-41.477 153.331-41.42 153.247-41.364 153.162-14.324 110.022-3.553 23.967-.592 3.722-.452 2.651-.311 1.748-.198 1.071-.113 .621-.057 .282 0 0" fill="#cfd8de"/>
<path transform="matrix(1,0,0,-1,207.6376,313.48536)" d="M0 0C0-.057-.029-.113-.057-.169-.085-.479-.169-.282-.282 .31-.226 .253-.198 .226-.141 .169-.085 .113-.057 .057 0 0" fill="#cfd8de"/>
<path transform="matrix(1,0,0,-1,207.3553,313.17524)" d="M0 0C-1.043 1.212-2.058 2.453-3.074 3.722H-5.273C-5.639 5.216-6.006 6.654-6.373 8.064-9.897 22.473-11.504 33.187-11.419 34.089L-9.333 33.948-7.247 33.976C-7.134 32.087-5.104 19.54-.902 3.722-.677 2.848-.452 1.974-.198 1.071-.084 .677 .028 .254 .141-.141 .169-.253 .197-.367 .226-.479 .197-.789 .113-.592 0 0" fill="#cfd8de"/>
<path transform="matrix(1,0,0,-1,229.7147,365.39503)" d="M0 0-3.44-2.396C-4.145-1.41-4.821-.366-5.498 .677-8.515 5.414-11.278 10.63-13.788 16.044-16.1 21.063-18.187 26.279-20.075 31.496-20.16 31.721-20.245 31.975-20.33 32.229V32.257C-20.414 32.482-20.499 32.68-20.583 32.934-21.485 35.471-22.359 38.009-23.149 40.546-23.543 41.759-23.91 42.943-24.277 44.127V44.156C-24.361 44.438-24.446 44.663-24.502 44.917H-20.132C-19.173 41.843-18.158 38.686-17.059 35.527-16.89 35.105-16.749 34.682-16.579 34.23-16.269 33.328-15.931 32.398-15.593 31.496-15.057 30.029-14.493 28.535-13.9 27.068-13.026 24.841-12.096 22.614-11.109 20.442-11.109 20.415-11.109 20.415-11.081 20.415-10.489 18.92-9.812 17.482-9.107 16.044-6.514 10.546-3.609 5.33-.451 .677-.311 .452-.141 .226 0 0" fill="#cfd8de"/>
<path transform="matrix(1,0,0,-1,144.6469,293.07124)" d="M0 0-1.072 1.381 .451 1.664C.564 1.071 .395 .451 0 0M36.26-16.382H40.18C33.694-12.265 27.52-8.797 21.993-5.949 21.993-5.949 21.965-5.949 21.965-5.921 21.711-5.809 21.457-5.667 21.175-5.526 9.53 .395 .874 3.44-1.72 3.44-1.974 3.44-2.171 3.412-2.312 3.355L-3.666 .902-1.156 1.354-1.241-.62C.62-.705 9.277-3.948 21.175-10.264 24.587-12.04 28.225-14.098 32.059-16.382 35.64-18.525 39.39-20.865 43.225-23.431 43.535-23.516 43.817-23.628 44.127-23.713 44.324-23.262 41.477-20.527 36.26-16.382M97.784-68.15 97.756-68.122C97.418-67.643 97.08-67.192 96.713-66.74L96.657-66.684C93.921-63.075 91.046-59.607 88.057-56.28 85.435-53.319 82.699-50.471 79.936-47.736 79.259-47.087 78.583-46.411 77.906-45.763 76.158-44.071 74.381-42.436 72.605-40.828 71.083-39.447 69.532-38.093 68.009-36.796 67.474-36.345 66.966-35.922 66.459-35.499 64.936-34.23 63.441-32.99 61.919-31.777 60.002-30.283 58.112-28.816 56.195-27.407 55.18-26.617 54.165-25.884 53.149-25.151 53.742-25.912 54.334-26.646 54.898-27.407H49.005C53.827-30.847 58.761-34.597 63.639-38.685 63.667-38.685 63.667-38.713 63.667-38.713 63.949-38.939 64.203-39.136 64.484-39.39 65.049-39.841 65.613-40.321 66.177-40.828 67.869-42.238 69.532-43.732 71.167-45.255 75.001-48.723 78.752-52.417 82.361-56.28 83.235-57.21 84.138-58.197 85.011-59.156 85.011-59.184 85.011-59.184 85.04-59.212 88.592-63.16 91.976-67.305 95.163-71.646 95.67-72.295 96.149-72.972 96.628-73.648L99.448-71.646 100.04-71.224C99.307-70.181 98.546-69.166 97.784-68.15" fill="#cfd8de"/>
<path transform="matrix(1,0,0,-1,184.8265,294.45314)" d="M0 0C3.806-5.019 7.641-10.038 11.503-15.001H6.203C-.113-6.795-6.429 1.466-12.716 9.756-12.745 9.756-12.745 9.784-12.745 9.784-14.803 12.463-16.805 15.142-18.835 17.82-18.919 17.905-18.976 17.961-19.004 18.046-19.766 19.033-20.499 19.991-21.232 20.978-23.347 23.741-25.433 26.533-27.52 29.296L-25.603 30.734-24.192 31.806C-22.472 29.521-20.753 27.237-19.004 24.954-18.948 24.87-18.891 24.785-18.835 24.729-12.604 16.467-6.344 8.262-.057 .057-.028 .028-.028 0 0 0" fill="#cfd8de"/>
<path transform="matrix(1,0,0,-1,240.2318,365.64845)" d="M0 0-3.271-2.622C-4.201-1.438-5.132-.254-6.09 .931-10.094 6.006-14.154 11.137-18.187 16.297-19.314 17.735-20.442 19.173-21.57 20.612-21.598 20.64-21.598 20.668-21.626 20.696-24.502 24.362-27.378 28.055-30.283 31.749-30.452 31.975-30.649 32.228-30.847 32.482V32.51C-31.213 32.961-31.551 33.413-31.918 33.864-31.918 33.864-31.918 33.892-31.946 33.892-34.85 37.642-37.754 41.392-40.687 45.17-41.25 45.932-41.843 46.665-42.436 47.426-41.42 46.693-40.405 45.96-39.39 45.17H-35.386C-35.189 44.917-34.991 44.663-34.794 44.409V44.381C-32.905 41.928-31.016 39.503-29.126 37.078-28.45 36.204-27.773 35.358-27.096 34.484-26.391 33.554-25.658 32.651-24.953 31.749-20.921 26.561-16.89 21.401-12.857 16.297-12.096 15.338-11.363 14.38-10.574 13.421-10.574 13.393-10.574 13.393-10.545 13.365-7.274 9.192-4.003 5.047-.733 .931-.479 .62-.254 .31 0 0" fill="#cfd8de"/>
<path transform="matrix(1,0,0,-1,168.5507,275.56544)" d="M0 0C1.374-4.841-102.374 150.708-167.075 115.58-165.721 109.158-99.861 41.402 0 0" fill="#cfd8de"/>
<path transform="matrix(1,0,0,-1,184.8197,294.44136)" d="M0 0C.028 .067-14.416 36.536-36.835 86.048-59.305 133.673-89.75 194.343-122.852 199.202-123.097 191.217-81.519 56.952 0 0" fill="#cfd8de"/>
<path transform="matrix(1,0,0,-1,188.7738,316.78413)" d="M0 0C-.31 .084-.592 .197-.902 .282-8.431 2.65-15.79 4.85-22.952 6.88-23.459 7.049-23.967 7.19-24.474 7.331-35.866 10.574-46.778 13.478-57.125 16.043-139.205 36.373-188.323 36.655-188.774 40.292-159.083 80.303-101.056 62.285-57.125 39.023-44.127 32.115-32.369 24.784-22.952 18.328-22.67 18.13-22.416 17.961-22.162 17.792-22.162 17.764-22.134 17.764-22.134 17.764-16.381 13.816-11.533 10.207-7.867 7.331-2.65 3.186 .197 .451 0 0" fill="#cfd8de"/>
<path transform="matrix(1,0,0,-1,486.1595,447.92485)" d="M0 0C-1.354-1.382-3.271-2.228-5.357-2.228H-31.918C-36.12-2.228-39.503 1.184-39.503 5.357-39.503 7.443-38.657 9.361-37.275 10.743-35.922 12.124-34.005 12.97-31.918 12.97H-5.357C-1.156 12.97 2.228 9.558 2.228 5.357 2.228 3.271 1.381 1.381 0 0M312.583 437.352C310.498 443.499 304.661 447.925 297.809 447.925H-338.891C-347.519 447.925-354.511 440.933-354.511 432.305V138.471H-321.86C-321.353 138.331-320.845 138.19-320.337 138.021V403.178H279.255V32.876H-183.924V-2.989L-197.43 7.218-210.937-2.989V32.876H-320.337V47.426H-354.511V-10.743-19.174H311.794C312.837-17.087 313.43-14.719 313.43-12.237V432.305C313.43 434.081 313.148 435.772 312.583 437.352M-354.511 45.278H-320.33699V139.44699H-354.511ZM-354.511 139.447" fill="#5d728d"/>
<path transform="matrix(1,0,0,-1,480.8026,434.95503)" d="M0 0C4.201 0 7.584-3.412 7.584-7.613 7.584-9.699 6.738-11.588 5.357-12.97 4.003-14.352 2.086-15.197 0-15.197H-26.561C-30.763-15.197-34.146-11.786-34.146-7.613-34.146-5.526-33.3-3.609-31.918-2.227-30.565-.846-28.648 0-26.561 0Z" fill="#56b5e2"/>
<path transform="matrix(1,0,0,-1,541.5092,214.82663)" d="M0 0 20.104-12.547 0-25.095Z" fill="#56b5e2"/>
<path transform="matrix(1,0,0,-1,797.954,467.09864)" d="M0 0C-2.538-5.16-7.839-8.685-13.985-8.685H-650.685C-655.929-8.685-660.554-6.119-663.374-2.171-663.853-1.494-664.304-.761-664.67 0Z" fill="#56b5e2"/>
<path transform="matrix(1,0,0,-1,488.3871,442.56785)" d="M0 0C0-2.086-.846-3.976-2.228-5.357-3.581-6.739-5.498-7.584-7.584-7.584H-34.146C-38.347-7.584-41.73-4.173-41.73 0-41.73 2.086-40.885 4.004-39.503 5.386-38.149 6.767-36.232 7.613-34.146 7.613H-7.584C-3.383 7.613 0 4.201 0 0" fill="#4c4960"/>
<path transform="matrix(1,0,0,-1,854.3749,467.09864)" d="M0 0C0-9.699-3.609-18.61-9.588-25.348V-25.376C-10.123-25.997-10.687-26.589-11.279-27.181-12.858-28.76-14.55-30.198-16.383-31.467-22.642-35.865-30.255-38.459-38.488-38.459H-739.645C-743.62-38.459-747.483-37.839-751.092-36.74-755.942-35.217-760.396-32.764-764.203-29.549-772.69-22.529-778.104-11.898-778.104 0H-721.091C-720.725-.761-720.273-1.494-719.794-2.171-719.372-2.763-718.92-3.327-718.413-3.835-718.102-4.173-717.792-4.483-717.454-4.765-717.087-5.104-716.721-5.385-716.326-5.667-716.128-5.837-715.903-5.978-715.678-6.119-715.311-6.372-714.917-6.598-714.521-6.823-713.563-7.359-712.52-7.782-711.42-8.092-711.109-8.177-710.8-8.262-710.461-8.317-710.095-8.402-709.728-8.458-709.362-8.515-709.136-8.572-708.882-8.6-708.628-8.6-708.121-8.656-707.613-8.685-707.106-8.685H-439.185C-435.97-13.111-429.26-16.156-421.45-16.156H-352.256C-344.474-16.156-337.735-13.111-334.549-8.685H-70.406C-64.26-8.685-58.959-5.16-56.421 0Z" fill="#48556a"/>
<path transform="matrix(1,0,0,-1,797.954,467.09864)" d="M0 0C-2.538-5.16-7.839-8.685-13.985-8.685H-278.128C-281.314-13.111-288.053-16.156-295.835-16.156H-365.029C-372.839-16.156-379.549-13.111-382.764-8.685H-650.685C-655.929-8.685-660.554-6.119-663.374-2.171-663.853-1.494-664.304-.761-664.67 0Z" fill="#4c4960"/>
<path transform="matrix(1,0,0,-1,521.8846,469.91795)" d="M0 0C0-2.115-.733-4.088-2.059-5.865-5.245-10.292-11.983-13.337-19.766-13.337H-88.959C-96.77-13.337-103.48-10.292-106.695-5.865-107.992-4.088-108.725-2.115-108.725 0-108.725 .958-108.556 1.917-108.274 2.819H-.48C-.169 1.917 0 .958 0 0" fill="#4c4960"/>
<path transform="matrix(1,0,0,-1,734.2577,559.3369)" d="M0 0C-104.142 0-168.62 6.066-168.635 11.687-168.639 12.827-164.954 16.821-117.398 20.341-84.145 22.803-39.924 24.232 7.117 24.367 9.521 24.374 11.924 24.377 14.305 24.377 118.446 24.377 182.925 18.311 182.94 12.691 182.957 6.81 112.339 .311 7.187 .01 4.783 .003 2.381 0 0 0" fill="#cfd8de"/>
<path transform="matrix(1,0,0,-1,748.5673,534.6054)" d="M0 0C-2.382 0-4.788-.003-7.193-.01-104.474-.288-183.319-6.125-183.3-13.046-183.28-19.796-108.26-25.086-14.308-25.086-11.927-25.086-9.526-25.083-7.121-25.076 90.159-24.797 169.005-18.961 168.985-12.04 168.966-5.289 93.952 0 0 0M.013-.708C45.519-.708 88.015-1.947 119.671-4.195 166.9-7.55 168.275-11.592 168.276-12.042 168.277-12.505 166.86-16.679 117.367-20.342 84.121-22.803 39.909-24.232-7.124-24.367-9.527-24.374-11.927-24.377-14.308-24.377-59.818-24.377-102.318-23.139-133.979-20.891-181.215-17.536-182.59-13.494-182.591-13.044-182.592-12.58-181.175-8.407-131.682-4.744-98.436-2.283-54.225-.853-7.191-.719-4.787-.712-2.381-.708 .008-.708H.013" fill="#5d728d"/>
<path transform="matrix(1,0,0,-1,589.2445,562.78958)" d="M0 0C-.534 0-1.059 .144-1.519 .417L-36.437 21.123-5.446 49.298C-4.904 49.773-4.206 50.037-3.482 50.037-3.046 50.037-2.624 49.943-2.228 49.758L22.719 39.164 24.757 16.079 1.664 .509C1.17 .176 .595 0 0 0" fill="#cfd8de"/>
<path transform="matrix(1,0,0,-1,585.7621,512.6113)" d="M0 0C-.743 0-1.478-.266-2.059-.775L-33.192-29.079 1.892-49.884C2.383-50.175 2.933-50.32 3.482-50.32 4.091-50.32 4.699-50.142 5.225-49.787L28.388-34.17 26.335-10.917 1.315-.292C.895-.096 .446 0 0 0M0-.284V-.284C.416-.284 .818-.373 1.204-.552L26.068-11.112 28.091-34.028 5.066-49.552C4.597-49.869 4.048-50.036 3.482-50.036 2.973-50.036 2.474-49.899 2.036-49.64L-32.718-29.031-1.872-.988C-1.354-.534-.689-.284 0-.284" fill="#5d728d"/>
<path transform="matrix(1,0,0,-1,746.4169,520.6416)" d="M0 0C.084-.473 .255-1.552 .384-3.036 .518-4.519 .538-5.612 .539-6.092 .637-12.593-.734-22.333-9.045-26.689L155.29-12.179C163.601-7.822 164.972 1.917 164.873 8.417 164.872 8.898 164.852 9.99 164.719 11.474 164.59 12.958 164.418 14.037 164.335 14.51 163.293 20.927 160.237 30.275 151.291 33.109L-13.043 18.599C-4.098 15.766-1.042 6.417 0 0" fill="#cfd8de"/>
<path transform="matrix(1,0,0,-1,746.4169,520.6416)" stroke-width=".709" stroke-linecap="round" stroke-linejoin="round" fill="none" stroke="#5d728d" d="M0 0C.084-.473 .255-1.552 .384-3.036 .518-4.519 .538-5.612 .539-6.092 .637-12.593-.734-22.333-9.045-26.689L155.29-12.179C163.601-7.822 164.972 1.917 164.873 8.417 164.872 8.898 164.852 9.99 164.719 11.474 164.59 12.958 164.418 14.037 164.335 14.51 163.293 20.927 160.237 30.275 151.291 33.109L-13.043 18.599C-4.098 15.766-1.042 6.417 0 0Z"/>
<path transform="matrix(1,0,0,-1,553.4232,541.8178)" d="M0 0 12.871 11.911C13.306 10.128 13.667 8.361 13.944 6.655 14.099 5.776 14.39 3.925 14.611 1.388 14.849-1.283 14.876-3.209 14.877-3.914 14.887-4.528 14.917-5.132 14.949-5.741 15.005-6.834 15.063-7.961 14.993-9.188Z" fill="#cfd8de"/>
<path transform="matrix(1,0,0,-1,566.3744,529.63919)" d="M0 0-13.185-12.202 2.169-21.611C2.308-19.598 2.094-17.883 2.068-16.092 2.066-15.257 2.031-13.357 1.801-10.779 1.576-8.199 1.277-6.322 1.133-5.501 .852-3.771 .473-1.913 0 0M-.161-.535C.249-2.237 .589-3.921 .854-5.55 1.007-6.424 1.298-8.271 1.518-10.804 1.755-13.456 1.783-15.386 1.785-16.097 1.793-16.713 1.825-17.332 1.856-17.93 1.908-18.947 1.961-19.994 1.913-21.122L-12.717-12.155-.161-.535" fill="#5d728d"/>
<path transform="matrix(1,0,0,-1,895.9901,533.3256)" d="M0 0-306.078-27.024-307.412-11.929-1.333 15.096Z" fill="#cfd8de"/>
<path transform="matrix(1,0,0,-1,895.9901,533.3256)" stroke-width=".709" stroke-linecap="round" stroke-linejoin="round" fill="none" stroke="#5d728d" d="M0 0-306.078-27.024-307.412-11.929-1.333 15.096 0 0Z"/>
<path transform="matrix(1,0,0,-1,894.6571,518.22946)" d="M0 0-306.079-27.025-307.412-11.93-1.333 15.096Z" fill="#cfd8de"/>
<path transform="matrix(1,0,0,-1,894.6571,518.22946)" stroke-width=".709" stroke-linecap="round" stroke-linejoin="round" fill="none" stroke="#5d728d" d="M0 0-306.079-27.025-307.412-11.93-1.333 15.096 0 0Z"/>
<path transform="matrix(1,0,0,-1,893.3241,503.13334)" d="M0 0-306.079-27.026-307.411-11.93-1.333 15.096Z" fill="#cfd8de"/>
<path transform="matrix(1,0,0,-1,893.3241,503.13334)" stroke-width=".709" stroke-linecap="round" stroke-linejoin="round" fill="none" stroke="#5d728d" d="M0 0-306.079-27.026-307.411-11.93-1.333 15.096 0 0Z"/>
<path transform="matrix(1,0,0,-1,474.3324,24.24701)" d="M0 0C0-4.98-4.037-9.017-9.017-9.017-13.997-9.017-18.034-4.98-18.034 0-18.034 4.98-13.997 9.017-9.017 9.017-4.037 9.017 0 4.98 0 0" fill="#302e39"/>
<path transform="matrix(1,0,0,-1,77.7909,538.39749)" stroke-width="2" stroke-linecap="round" stroke-miterlimit="10" stroke-linejoin="miter" fill="none" stroke="#ffffff" d="M0 0-1.085-7.841"/>
<path transform="matrix(1,0,0,-1,87.9686,464.8676)" stroke-width="2" stroke-linecap="round" stroke-miterlimit="10" stroke-linejoin="miter" fill="none" stroke="#ffffff" d="M0 0-8.538-61.682"/>
<path transform="matrix(1,0,0,-1,0,562.931)" d="M767.543 146.681H164.88202V517.681H767.543Z" fill="#ffffff"/>
</g>
</g>
</svg>
