<svg xmlns="http://www.w3.org/2000/svg" xmlns:xlink="http://www.w3.org/1999/xlink" version="1.1" width="1642.15pt" height="1106pt" viewBox="0 0 1642.15 1106">
<defs>
<clipPath id="clip_0">
<path transform="matrix(1,0,0,-1,0,1106)" d="M0 1106H1642.15V0H0Z"/>
</clipPath>
</defs>
<g id="layer_1" data-name="">
<g clip-path="url(#clip_0)">
<path transform="matrix(1,0,0,-1,1311.8807,788.7813)" d="M0 0C0-10.003-186.615-18.113-416.817-18.113-647.019-18.113-833.635-10.003-833.635 0-833.635 10.003-647.019 18.113-416.817 18.113-186.615 18.113 0 10.003 0 0" fill="#d7d7d7"/>
<path transform="matrix(1,0,0,-1,1210.8925,650.1114)" d="M0 0C.665-7.496 11.441 120.971 49.621 164.317 50.658 160.421 44.505 50.571 0 0" fill="#cfd8de"/>
<path transform="matrix(1,0,0,-1,1192.2645,704.4293)" d="M0 0C21.628 31.132 30.493 86.591 30.346 88.699L26.173 88.409 28.26 88.554 26.171 88.589C25.932 84.56 16.939 31.717-3.434 2.385Z" fill="#cfd8de"/>
<path transform="matrix(1,0,0,-1,1273.4286,628.0596)" d="M0 0C-.106-.577 .062-1.19 .45-1.638L1.543-.282ZM-99.585-72.878C-63.808-22.643-1.49 3.49 2.775 1.704L2.777 1.703 4.112-.756 1.627-.3 1.7-2.277C-3.546-2.472-62.364-27.829-96.177-75.306Z" fill="#cfd8de"/>
<path transform="matrix(1,0,0,-1,1181.577,704.89749)" d="M0 0C26.551 33.5 53.354 68.188 79.659 103.099L76.32 105.617C50.032 70.732 23.251 36.071-3.28 2.596Z" fill="#cfd8de"/>
<path transform="matrix(1,0,0,-1,1249.9852,612.2047)" d="M0 0C-1.375-4.841 102.373 150.708 167.074 115.58 165.721 109.158 99.861 41.401 0 0" fill="#cfd8de"/>
<path transform="matrix(1,0,0,-1,1233.7157,631.08059)" d="M0 0C-.027 .067 14.416 36.535 36.836 86.048 59.305 133.673 89.751 194.342 122.852 199.201 123.097 191.217 81.52 56.952 0 0" fill="#cfd8de"/>
<path transform="matrix(1,0,0,-1,1229.7548,653.4254)" d="M0 0C-1.409 3.056 136.919 110.172 188.785 40.297 188.229 35.878 115.945 36.393 0 0" fill="#cfd8de"/>
<path transform="matrix(1,0,0,-1,649.1816,596.40347)" d="M0 0C-1.043 1.212-2.058 2.453-3.074 3.722-4.201 5.131-5.301 6.569-6.372 8.064-24.305 32.961-35.076 67.755-41.364 98.179-41.42 98.433-41.477 98.715-41.533 98.969-48.554 133.424-49.851 162.072-49.343 164.018-46.608 160.888-43.986 157.335-41.533 153.416-41.477 153.331-41.42 153.247-41.364 153.162-14.324 110.022-3.553 23.967-.592 3.722-.452 2.65-.311 1.748-.197 1.071-.113 .621-.056 .282 0 0" fill="#cfd8de"/>
<path transform="matrix(1,0,0,-1,649.4638,596.7134)" d="M0 0C0-.057-.029-.113-.056-.169-.085-.479-.169-.282-.282 .31-.226 .253-.197 .226-.141 .169-.085 .113-.056 .056 0 0" fill="#cfd8de"/>
<path transform="matrix(1,0,0,-1,649.1816,596.40347)" d="M0 0C-1.043 1.212-2.058 2.453-3.074 3.722H-5.273C-5.639 5.216-6.006 6.654-6.372 8.064-9.897 22.473-11.504 33.187-11.419 34.089L-9.333 33.948-7.247 33.976C-7.134 32.087-5.104 19.54-.902 3.722-.677 2.848-.452 1.974-.197 1.071-.084 .677 .028 .253 .141-.141 .169-.254 .197-.367 .226-.479 .197-.789 .113-.592 0 0" fill="#cfd8de"/>
<path transform="matrix(1,0,0,-1,671.541,648.6231)" d="M0 0-3.439-2.396C-4.145-1.41-4.821-.366-5.498 .677-8.515 5.414-11.278 10.63-13.788 16.044-16.1 21.063-18.186 26.279-20.075 31.496-20.16 31.721-20.245 31.975-20.329 32.229V32.257C-20.414 32.482-20.499 32.68-20.583 32.934-21.485 35.471-22.359 38.009-23.149 40.546-23.543 41.759-23.91 42.943-24.277 44.127V44.156C-24.361 44.438-24.446 44.663-24.502 44.917H-20.132C-19.173 41.843-18.158 38.686-17.059 35.527-16.889 35.104-16.748 34.682-16.579 34.23-16.269 33.328-15.93 32.398-15.592 31.496-15.057 30.029-14.492 28.535-13.9 27.068-13.026 24.841-12.096 22.614-11.109 20.442-11.109 20.415-11.109 20.415-11.081 20.415-10.489 18.92-9.812 17.482-9.107 16.044-6.513 10.546-3.609 5.329-.451 .677-.31 .451-.141 .226 0 0" fill="#cfd8de"/>
<path transform="matrix(1,0,0,-1,586.4731,576.2994)" d="M0 0-1.072 1.381 .451 1.664C.564 1.071 .395 .451 0 0M36.26-16.382H40.18C33.695-12.266 27.52-8.797 21.994-5.95 21.994-5.95 21.965-5.95 21.965-5.921 21.711-5.809 21.457-5.667 21.176-5.526 9.53 .395 .874 3.44-1.72 3.44-1.973 3.44-2.171 3.412-2.312 3.355L-3.666 .902-1.156 1.353-1.241-.62C.621-.705 9.277-3.948 21.176-10.264 24.587-12.04 28.225-14.098 32.059-16.382 35.64-18.525 39.39-20.865 43.225-23.431 43.535-23.516 43.817-23.628 44.127-23.713 44.325-23.262 41.477-20.527 36.26-16.382M97.785-68.15 97.756-68.122C97.418-67.643 97.08-67.192 96.713-66.74L96.657-66.684C93.921-63.075 91.046-59.607 88.057-56.28 85.435-53.319 82.699-50.472 79.936-47.736 79.259-47.088 78.583-46.411 77.906-45.763 76.158-44.071 74.381-42.436 72.605-40.828 71.083-39.447 69.532-38.093 68.009-36.796 67.474-36.345 66.966-35.922 66.459-35.499 64.936-34.23 63.442-32.99 61.919-31.777 60.002-30.283 58.112-28.816 56.195-27.407 55.181-26.617 54.165-25.884 53.15-25.151 53.742-25.912 54.334-26.646 54.898-27.407H49.005C53.827-30.847 58.761-34.597 63.639-38.685 63.667-38.685 63.667-38.713 63.667-38.713 63.949-38.939 64.203-39.137 64.485-39.39 65.049-39.841 65.613-40.321 66.177-40.828 67.869-42.238 69.532-43.732 71.167-45.255 75.002-48.723 78.752-52.417 82.361-56.28 83.235-57.21 84.138-58.197 85.012-59.156 85.012-59.184 85.012-59.184 85.04-59.212 88.593-63.16 91.976-67.305 95.163-71.646 95.67-72.295 96.149-72.972 96.629-73.649L99.448-71.646 100.041-71.224C99.307-70.181 98.546-69.166 97.785-68.15" fill="#cfd8de"/>
<path transform="matrix(1,0,0,-1,626.6528,577.6812)" d="M0 0C3.806-5.019 7.641-10.038 11.504-15H6.203C-.113-6.795-6.429 1.466-12.716 9.756-12.745 9.756-12.745 9.784-12.745 9.784-14.803 12.462-16.805 15.142-18.835 17.82-18.919 17.905-18.976 17.961-19.004 18.046-19.766 19.033-20.499 19.991-21.231 20.978-23.346 23.741-25.433 26.533-27.52 29.296L-25.602 30.734-24.192 31.806C-22.472 29.521-20.752 27.237-19.004 24.954-18.948 24.87-18.891 24.785-18.835 24.729-12.604 16.467-6.344 8.261-.056 .057-.028 .028-.028 0 0 0" fill="#cfd8de"/>
<path transform="matrix(1,0,0,-1,682.0585,648.87649)" d="M0 0-3.271-2.622C-4.202-1.438-5.132-.254-6.09 .931-10.094 6.006-14.155 11.137-18.187 16.297L-21.57 20.611C-21.598 20.64-21.598 20.668-21.626 20.696-24.502 24.361-27.379 28.055-30.283 31.749-30.452 31.974-30.649 32.228-30.847 32.482V32.51C-31.214 32.961-31.552 33.413-31.918 33.864-31.918 33.864-31.918 33.892-31.946 33.892-34.851 37.642-37.755 41.392-40.687 45.17-41.251 45.932-41.844 46.665-42.436 47.426-41.42 46.693-40.405 45.96-39.39 45.17H-35.387C-35.189 44.917-34.992 44.663-34.794 44.409V44.381C-32.905 41.928-31.016 39.503-29.126 37.078-28.451 36.204-27.773 35.358-27.097 34.484-26.392 33.554-25.658 32.651-24.954 31.749-20.921 26.561-16.89 21.401-12.857 16.297-12.097 15.338-11.363 14.38-10.574 13.421-10.574 13.393-10.574 13.393-10.545 13.365-7.274 9.192-4.004 5.047-.733 .931-.479 .62-.254 .31 0 0" fill="#cfd8de"/>
<path transform="matrix(1,0,0,-1,610.3769,558.7935)" d="M0 0C1.375-4.841-102.373 150.708-167.074 115.58-165.721 109.158-99.861 41.402 0 0" fill="#cfd8de"/>
<path transform="matrix(1,0,0,-1,626.6459,577.6695)" d="M0 0C.028 .067-14.416 36.536-36.835 86.048-59.305 133.673-89.75 194.343-122.852 199.202-123.096 191.217-81.519 56.952 0 0" fill="#cfd8de"/>
<path transform="matrix(1,0,0,-1,630.6,600.0123)" d="M0 0C-.31 .084-.592 .197-.902 .282-8.431 2.65-15.79 4.85-22.951 6.88-23.459 7.049-23.967 7.19-24.474 7.331-35.865 10.574-46.778 13.478-57.125 16.043-139.205 36.373-188.323 36.655-188.773 40.292-159.083 80.303-101.056 62.285-57.125 39.023-44.127 32.115-32.369 24.784-22.951 18.328-22.67 18.13-22.416 17.96-22.162 17.792-22.162 17.763-22.133 17.763-22.133 17.763-16.381 13.816-11.532 10.207-7.867 7.331-2.65 3.186 .198 .451 0 0" fill="#cfd8de"/>
<path transform="matrix(1,0,0,-1,927.9858,731.1529)" d="M0 0C-1.354-1.382-3.271-2.228-5.357-2.228H-31.917C-36.12-2.228-39.503 1.184-39.503 5.357-39.503 7.443-38.657 9.361-37.275 10.742-35.922 12.124-34.005 12.97-31.917 12.97H-5.357C-1.156 12.97 2.228 9.558 2.228 5.357 2.228 3.271 1.382 1.381 0 0M312.583 437.352C310.497 443.499 304.661 447.925 297.809 447.925H-338.891C-347.519 447.925-354.511 440.933-354.511 432.305V138.471H-321.86C-321.353 138.331-320.845 138.189-320.337 138.021V403.178H279.255V32.876H-183.924V-2.989L-197.43 7.218-210.936-2.989V32.876H-320.337V47.426H-354.511V-10.743-19.174H311.794C312.838-17.087 313.43-14.719 313.43-12.238V432.305C313.43 434.081 313.148 435.772 312.583 437.352M-354.511 45.278H-320.33699V139.44699H-354.511ZM-354.511 139.447" fill="#5d728d"/>
<path transform="matrix(1,0,0,-1,922.6288,718.1832)" d="M0 0C4.201 0 7.584-3.412 7.584-7.613 7.584-9.699 6.739-11.588 5.357-12.97 4.003-14.352 2.086-15.198 0-15.198H-26.561C-30.763-15.198-34.146-11.786-34.146-7.613-34.146-5.526-33.3-3.609-31.918-2.228-30.565-.846-28.648 0-26.561 0Z" fill="#56b5e2"/>
<path transform="matrix(1,0,0,-1,983.3354,498.0547)" d="M0 0 20.104-12.547 0-25.095Z" fill="#56b5e2"/>
<path transform="matrix(1,0,0,-1,1239.7802,750.32669)" d="M0 0C-2.537-5.16-7.839-8.685-13.985-8.685H-650.685C-655.929-8.685-660.554-6.119-663.373-2.171-663.852-1.495-664.304-.761-664.67 0Z" fill="#56b5e2"/>
<path transform="matrix(1,0,0,-1,930.2133,725.796)" d="M0 0C0-2.086-.846-3.976-2.228-5.357-3.581-6.739-5.498-7.585-7.584-7.585H-34.145C-38.347-7.585-41.73-4.173-41.73 0-41.73 2.086-40.884 4.004-39.503 5.385-38.149 6.767-36.232 7.613-34.145 7.613H-7.584C-3.383 7.613 0 4.201 0 0" fill="#4c4960"/>
<path transform="matrix(1,0,0,-1,1296.201,750.32669)" d="M0 0C0-9.699-3.609-18.61-9.587-25.348V-25.376C-10.123-25.997-10.687-26.589-11.278-27.181-12.857-28.76-14.549-30.198-16.383-31.467-22.642-35.865-30.255-38.459-38.488-38.459H-739.644C-743.62-38.459-747.483-37.839-751.092-36.74-755.942-35.217-760.396-32.764-764.203-29.549-772.69-22.529-778.103-11.898-778.103 0H-721.091C-720.725-.761-720.273-1.495-719.794-2.171-719.372-2.763-718.92-3.327-718.413-3.835-718.102-4.173-717.792-4.483-717.454-4.765-717.087-5.104-716.72-5.386-716.326-5.667-716.128-5.837-715.903-5.978-715.678-6.119-715.31-6.372-714.916-6.598-714.521-6.824-713.563-7.359-712.519-7.782-711.42-8.092-711.109-8.177-710.8-8.262-710.461-8.318-710.095-8.402-709.728-8.459-709.362-8.515-709.136-8.572-708.882-8.6-708.628-8.6-708.121-8.656-707.613-8.685-707.106-8.685H-439.185C-435.97-13.111-429.26-16.156-421.449-16.156H-352.256C-344.474-16.156-337.735-13.111-334.549-8.685H-70.406C-64.26-8.685-58.958-5.16-56.421 0Z" fill="#48556a"/>
<path transform="matrix(1,0,0,-1,1239.7802,750.32669)" d="M0 0C-2.537-5.16-7.839-8.685-13.985-8.685H-278.128C-281.314-13.111-288.053-16.156-295.835-16.156H-365.028C-372.839-16.156-379.549-13.111-382.764-8.685H-650.685C-655.929-8.685-660.554-6.119-663.373-2.171-663.852-1.495-664.304-.761-664.67 0Z" fill="#4c4960"/>
<path transform="matrix(1,0,0,-1,963.7109,753.1461)" d="M0 0C0-2.115-.733-4.088-2.059-5.865-5.245-10.292-11.983-13.337-19.766-13.337H-88.959C-96.77-13.337-103.48-10.292-106.695-5.865-107.992-4.088-108.725-2.115-108.725 0-108.725 .958-108.556 1.917-108.274 2.819H-.479C-.169 1.917 0 .958 0 0" fill="#4c4960"/>
<path transform="matrix(1,0,0,-1,1176.0956,842.5655)" d="M0 0C-104.148 0-168.631 6.066-168.646 11.687-168.65 12.827-164.965 16.821-117.41 20.341-84.156 22.803-39.936 24.232 7.106 24.367 9.517 24.374 11.919 24.377 14.307 24.377 118.439 24.377 182.913 18.311 182.929 12.691 182.945 6.81 112.327 .311 7.176 .01 4.777 .003 2.375 0 0 0" fill="#cfd8de"/>
<path transform="matrix(1,0,0,-1,1190.3934,817.8336)" d="M0 0C-2.382 0-4.788-.003-7.193-.01-104.474-.288-183.319-6.125-183.299-13.046-183.28-19.796-108.26-25.086-14.308-25.086-11.926-25.086-9.526-25.083-7.121-25.076 90.159-24.798 169.005-18.961 168.985-12.04 168.966-5.289 93.952 0 0 0M.013-.709C45.52-.709 88.015-1.947 119.671-4.195 166.9-7.55 168.275-11.592 168.276-12.042 168.277-12.505 166.86-16.679 117.367-20.342 84.121-22.803 39.91-24.232-7.123-24.367-9.527-24.374-11.927-24.377-14.308-24.377-59.818-24.377-102.318-23.139-133.978-20.891-181.214-17.536-182.589-13.494-182.591-13.044-182.592-12.58-181.175-8.407-131.682-4.744-98.436-2.283-54.224-.854-7.191-.719-4.787-.712-2.381-.709 .008-.709H.013" fill="#5d728d"/>
<path transform="matrix(1,0,0,-1,1031.0702,846.0176)" d="M0 0C-.534 0-1.059 .144-1.518 .416L-36.436 21.123-5.444 49.297C-4.903 49.773-4.205 50.036-3.481 50.036-3.045 50.036-2.623 49.943-2.227 49.758L22.72 39.164 24.759 16.079 1.664 .508C1.171 .176 .595 0 0 0" fill="#cfd8de"/>
<path transform="matrix(1,0,0,-1,1027.5883,795.83938)" d="M0 0C-.743 0-1.478-.266-2.058-.775L-33.192-29.079 1.892-49.884C2.383-50.175 2.933-50.32 3.482-50.32 4.091-50.32 4.7-50.142 5.225-49.787L28.389-34.17 26.335-10.917 1.315-.292C.895-.096 .446 0 0 0M0-.284V-.284C.416-.284 .818-.373 1.204-.552L26.068-11.112 28.092-34.028 5.066-49.552C4.597-49.869 4.049-50.036 3.482-50.036 2.974-50.036 2.474-49.899 2.036-49.64L-32.718-29.031-1.871-.989C-1.354-.534-.689-.284 0-.284" fill="#5d728d"/>
<path transform="matrix(1,0,0,-1,1188.244,803.8697)" d="M0 0C.083-.473 .254-1.552 .384-3.036 .517-4.519 .537-5.612 .538-6.092 .636-12.593-.734-22.333-9.046-26.689L155.289-12.179C163.6-7.822 164.971 1.917 164.872 8.417 164.871 8.898 164.852 9.99 164.718 11.474 164.589 12.958 164.417 14.037 164.334 14.51 163.292 20.927 160.236 30.275 151.29 33.109L-13.044 18.598C-4.099 15.766-1.043 6.417 0 0" fill="#cfd8de"/>
<path transform="matrix(1,0,0,-1,1188.244,803.8697)" stroke-width=".709" stroke-linecap="round" stroke-linejoin="round" fill="none" stroke="#5d728d" d="M0 0C.083-.473 .254-1.552 .384-3.036 .517-4.519 .537-5.612 .538-6.092 .636-12.593-.734-22.333-9.046-26.689L155.289-12.179C163.6-7.822 164.971 1.917 164.872 8.417 164.871 8.898 164.852 9.99 164.718 11.474 164.589 12.958 164.417 14.037 164.334 14.51 163.292 20.927 160.236 30.275 151.29 33.109L-13.044 18.598C-4.099 15.766-1.043 6.417 0 0Z"/>
<path transform="matrix(1,0,0,-1,995.2499,825.0464)" d="M0 0 12.871 11.911C13.305 10.134 13.666 8.367 13.944 6.655 14.098 5.78 14.389 3.935 14.61 1.388 14.849-1.283 14.876-3.209 14.877-3.914 14.886-4.527 14.917-5.129 14.948-5.738 15.004-6.832 15.063-7.96 14.993-9.188Z" fill="#cfd8de"/>
<path transform="matrix(1,0,0,-1,1008.2006,812.8672)" d="M0 0-13.185-12.202 2.169-21.611C2.308-19.598 2.095-17.883 2.068-16.092 2.067-15.257 2.031-13.358 1.801-10.779 1.576-8.199 1.277-6.322 1.133-5.501 .852-3.771 .474-1.913 0 0M-.161-.535C.249-2.237 .589-3.921 .854-5.55 1.008-6.424 1.298-8.27 1.519-10.804 1.755-13.457 1.783-15.387 1.785-16.097 1.794-16.713 1.826-17.332 1.856-17.93 1.908-18.947 1.962-19.994 1.913-21.122L-12.717-12.156-.161-.535" fill="#5d728d"/>
<path transform="matrix(1,0,0,-1,1337.8163,816.55386)" d="M0 0-306.078-27.024-307.411-11.929-1.333 15.096Z" fill="#cfd8de"/>
<path transform="matrix(1,0,0,-1,1337.8163,816.55386)" stroke-width=".709" stroke-linecap="round" stroke-linejoin="round" fill="none" stroke="#5d728d" d="M0 0-306.078-27.024-307.411-11.929-1.333 15.096 0 0Z"/>
<path transform="matrix(1,0,0,-1,1336.4833,801.45767)" d="M0 0-306.078-27.025-307.411-11.93-1.332 15.096Z" fill="#cfd8de"/>
<path transform="matrix(1,0,0,-1,1336.4833,801.45767)" stroke-width=".709" stroke-linecap="round" stroke-linejoin="round" fill="none" stroke="#5d728d" d="M0 0-306.078-27.025-307.411-11.93-1.332 15.096 0 0Z"/>
<path transform="matrix(1,0,0,-1,1335.1513,786.36196)" d="M0 0-306.079-27.025-307.412-11.929-1.333 15.096Z" fill="#cfd8de"/>
<path transform="matrix(1,0,0,-1,1335.1513,786.36196)" stroke-width=".709" stroke-linecap="round" stroke-linejoin="round" fill="none" stroke="#5d728d" d="M0 0-306.079-27.025-307.412-11.929-1.333 15.096 0 0Z"/>
<path transform="matrix(1,0,0,-1,916.1586,307.47523)" d="M0 0C0-4.98-4.037-9.017-9.017-9.017-13.997-9.017-18.034-4.98-18.034 0-18.034 4.98-13.997 9.017-9.017 9.017-4.037 9.017 0 4.98 0 0" fill="#302e39"/>
<path transform="matrix(1,0,0,-1,519.6176,821.6255)" stroke-width="2" stroke-linecap="round" stroke-miterlimit="10" stroke-linejoin="miter" fill="none" stroke="#ffffff" d="M0 0-1.085-7.841"/>
<path transform="matrix(1,0,0,-1,529.7949,748.0958)" stroke-width="2" stroke-linecap="round" stroke-miterlimit="10" stroke-linejoin="miter" fill="none" stroke="#ffffff" d="M0 0-8.538-61.682"/>
<path transform="matrix(1,0,0,-1,0,1106)" d="M1209.37 406.522H606.709V777.522H1209.37Z" fill="#ffffff"/>
</g>
</g>
</svg>
