<svg xmlns="http://www.w3.org/2000/svg" xmlns:xlink="http://www.w3.org/1999/xlink" version="1.1" width="1642.15pt" height="1106pt" viewBox="0 0 1642.15 1106">
<defs>
<clipPath id="clip_0">
<path transform="matrix(1,0,0,-1,0,1106)" d="M0 1106H1642.15V0H0Z"/>
</clipPath>
</defs>
<g id="layer_1" data-name="">
<g clip-path="url(#clip_0)">
<path transform="matrix(1,0,0,-1,935.1948,574.5401)" d="M0 0-13.5 10.2-27.01 0V36.99H0ZM17.91 35.86C19.32 40.43 21.4 45.28 24.31 50.41H-210.43C-222.72 50.41-233.24 42.77-237.49 32-238.79 28.7-239.52 25.09-239.52 21.31-239.52 17.11-238.62 13.11-236.99 9.47V9.44C-232.45-.68-222.27-7.76-210.43-7.76H24.31C24.31-7.76 9.59 8.88 17.91 35.86" fill="#ffffff"/>
<path transform="matrix(1,0,0,-1,935.1948,537.5499)" d="M0 0V-36.99L-13.5-26.79-27.01-36.99V0Z" fill="#5d728d"/>
<path transform="matrix(1,0,0,-1,722.5449,513.1002)" d="M0 0H236.96V-11.03H2.22C-10.07-11.03-20.59-18.67-24.84-29.44-26.14-32.74-26.87-36.35-26.87-40.13-26.87-44.33-25.97-48.33-24.34-51.97V-52C-19.8-62.12-9.62-69.2 2.22-69.2H236.96V-79.8H0C-4.54-79.8-8.89-79.04-12.95-77.63-24.68-73.62-33.92-64.29-37.84-52.51V-52.48C-39.2-48.53-39.9-44.3-39.9-39.9-39.9-36.1-39.37-32.43-38.38-28.96-33.61-12.24-18.25 0 0 0" fill="#5d728d"/>
</g>
</g>
</svg>
