<svg xmlns="http://www.w3.org/2000/svg" xmlns:xlink="http://www.w3.org/1999/xlink" version="1.1" width="276.86pt" height="79.8pt" viewBox="0 0 276.86 79.8">
<defs>
<clipPath id="clip_0">
<path transform="matrix(1,0,0,-1,0,79.8)" d="M0 79.8H276.86V0H0Z"/>
</clipPath>
</defs>
<g id="layer_1" data-name="">
<g clip-path="url(#clip_0)">
<path transform="matrix(1,0,0,-1,51.32,61.4401)" d="M0 0-4.21 3.18-13.51 10.2-27.02 0V36.99H0ZM211.19 30.08C207.44 41.87 196.44 50.41 183.41 50.41H-51.32C-31.19 15-51.32-7.76-51.32-7.76H183.41C190.35-7.76 196.69-5.36 201.71-1.3 204.48 .93 206.82 3.66 208.62 6.76 210.65 10.26 211.95 14.21 212.37 18.44 212.46 19.4 212.51 20.35 212.51 21.31 212.51 24.36 212.03 27.32 211.19 30.08" fill="#ffffff"/>
<path transform="matrix(1,0,0,-1,51.32,24.449803)" d="M0 0V-36.99L-4.21-33.81-13.51-26.79-27.02-36.99V0Z" fill="#5d728d"/>
<path transform="matrix(1,0,0,-1,276.86,39.9)" d="M0 0C0-1.04-.03-2.09-.14-3.1-.45-7.19-1.38-11.14-2.85-14.78-3.98-17.65-5.47-20.36-7.22-22.84-14.41-33.16-26.39-39.9-39.93-39.9H-276.86V-29.3H-42.13C-35.19-29.3-28.85-26.9-23.83-22.84-21.06-20.61-18.72-17.88-16.92-14.78-14.89-11.28-13.59-7.33-13.17-3.1-13.08-2.14-13.03-1.19-13.03-.23-13.03 2.82-13.51 5.78-14.35 8.54-18.1 20.33-29.1 28.87-42.13 28.87H-276.86V39.9H-39.93C-20.81 39.9-4.82 26.48-.93 8.54-.31 5.81 0 2.93 0 0" fill="#5d728d"/>
</g>
</g>
</svg>
