<svg xmlns="http://www.w3.org/2000/svg" xmlns:xlink="http://www.w3.org/1999/xlink" version="1.1" width="1642.15pt" height="1106pt" viewBox="0 0 1642.15 1106">
<defs>
<clipPath id="clip_0">
<path transform="matrix(1,0,0,-1,0,1106)" d="M15.383 1106C6.887 1106 0 1099.113 0 1090.617V15.382C0 6.887 6.887 0 15.383 0H1626.767C1635.262 0 1642.15 6.887 1642.15 15.382V1090.617C1642.15 1099.113 1635.262 1106 1626.767 1106Z"/>
</clipPath>
</defs>
<g id="layer_1" data-name="">
<g clip-path="url(#clip_0)">
<path transform="matrix(1,0,0,-1,519.7416,-29.14685)" d="M0 0C-68.839-160.802 34.103-340.604 60.904-387.416 329.393-856.373 1246.211-979.185 1522.597-606.67 1652.157-432.049 1637.655-153.076 1519.552 29.775 1210.712 507.93 161.746 377.826 0 0" fill="#48556a"/>
</g>
</g>
</svg>
